<svg id="Capa_1" data-name="Capa 1" xmlns="http://www.w3.org/2000/svg" viewBox="0 0 62.74 20.91"><defs><style>.cls-1{stroke:#000;stroke-width:0.75px;}</style></defs><path class="cls-1" d="M946.77,668.65c-.6.54-1.18,1.1-1.75,1.68.47.66.94,1.32,1.42,2,.65-.67,1.32-1.32,2-1.93.1-.08.18-.08.24,0,.21.35.42.71.63,1,0,.07,0,.15,0,.24a33.94,33.94,0,0,0-3,3.08c-.07.07-.13.09-.18,0q-2.88-3.43-5.51-7.09c0-.07,0-.16.07-.26a44.35,44.35,0,0,1,3.52-3.35c.12-.08.21-.09.27,0l.59,1.08c.05.08,0,.17-.07.26-.69.59-1.37,1.21-2,1.85l1.23,1.83c.59-.59,1.2-1.16,1.82-1.71.11-.08.19-.09.26,0l.6,1A.2.2,0,0,1,946.77,668.65Z" transform="translate(-940.18 -654.26)"/><path class="cls-1" d="M950.73,670.73c-.1.07-.17.06-.23,0l-.6-1.08a.17.17,0,0,1,.06-.22,5.27,5.27,0,0,0,1-1.1.82.82,0,0,0-.15-.85,4,4,0,0,0-1.17-1.05l-1.14-.73a5.17,5.17,0,0,1-1.26-1.1,1.84,1.84,0,0,1-.11-2.14,5.87,5.87,0,0,1,2.18-2c.13-.08.22-.08.27,0,.14.39.27.78.41,1.16a.2.2,0,0,1-.09.24c-.9.6-1.23,1.09-1,1.42a8.53,8.53,0,0,0,1.72,1.48,6.87,6.87,0,0,1,1.73,1.64C953.27,668,952.66,669.27,950.73,670.73Z" transform="translate(-940.18 -654.26)"/><path class="cls-1" d="M958.3,660.46c0,1.38-1,2.39-3,3.33.33,1.07.68,2.13,1,3.19a.15.15,0,0,1-.09.2c-.41.23-.81.46-1.22.71q-.13.06-.18,0-1.62-4.17-3-8.46c0-.09,0-.16.14-.22a21.24,21.24,0,0,1,2.71-1.34c1.78-.72,2.89-.39,3.28.8A5.78,5.78,0,0,1,958.3,660.46Zm-4.24-.86q.39,1.44.81,2.88a2.87,2.87,0,0,0,1.47-1.1,2.2,2.2,0,0,0-.17-1.69.73.73,0,0,0-.58-.52,1.53,1.53,0,0,0-.91.14A5,5,0,0,0,954.06,659.6Z" transform="translate(-940.18 -654.26)"/><path class="cls-1" d="M964.5,660.37c-.74.16-1.49.33-2.22.53.07.81.15,1.61.24,2.41.85-.23,1.7-.43,2.56-.6q.18,0,.21.12c0,.41,0,.81,0,1.22,0,.08,0,.14-.14.18a33.16,33.16,0,0,0-3.91,1c-.1,0-.15,0-.18-.07q-.75-4.41-1.21-8.87c0-.09.06-.15.17-.19a42.61,42.61,0,0,1,4.47-1c.14,0,.21,0,.23.13,0,.41,0,.82,0,1.23,0,.1-.07.16-.19.19-.85.15-1.7.33-2.54.53l.15,2.2c.76-.2,1.53-.37,2.3-.52.13,0,.21,0,.22.12,0,.4,0,.8,0,1.21A.18.18,0,0,1,964.5,660.37Z" transform="translate(-940.18 -654.26)"/><path class="cls-1" d="M971.08,663.66a4.31,4.31,0,0,1-.64.13,10.08,10.08,0,0,1-1.23.15,2.15,2.15,0,0,1-1.61-.48,2.28,2.28,0,0,1-.74-1.54,17.05,17.05,0,0,1,.09-4.24,4.16,4.16,0,0,1,.6-1.87,2.43,2.43,0,0,1,1.13-.84,5.57,5.57,0,0,1,1.85-.33,10,10,0,0,1,1.34.05l.38,0a.14.14,0,0,1,.1.15c-.08.36-.15.72-.22,1.08,0,.1-.08.15-.17.15l-.59-.06c-.31,0-.57,0-.76,0a2,2,0,0,0-1.17.31,1.76,1.76,0,0,0-.54,1.12,19.69,19.69,0,0,0-.24,2.18,16.81,16.81,0,0,0,0,2.08.77.77,0,0,0,.92.8c.17,0,.46,0,.88-.1l.72-.07a.13.13,0,0,1,.14.14c-.06.37-.11.73-.16,1.09A.19.19,0,0,1,971.08,663.66Z" transform="translate(-940.18 -654.26)"/><path class="cls-1" d="M976.61,655.21c-.87,2.86-1.63,5.73-2.3,8.62a.16.16,0,0,1-.18.13q-.68,0-1.35-.06c-.1,0-.14,0-.14-.12q.79-4.39,1.88-8.76c0-.08.1-.12.23-.11.55,0,1.11.08,1.66.13C976.55,655.07,976.62,655.12,976.61,655.21Z" transform="translate(-940.18 -654.26)"/><path class="cls-1" d="M982.8,656.51c-.5,2.91-1.08,5.81-1.71,8.7,0,.08-.1.11-.21.08-.45-.12-.89-.23-1.34-.33-.09,0-.12-.07-.11-.14l.39-1.9c-.52-.11-1-.22-1.55-.31-.3.56-.58,1.11-.86,1.67a.21.21,0,0,1-.07.1.18.18,0,0,1-.13,0c-.44-.07-.89-.13-1.34-.18-.09,0-.13-.06-.12-.13a58.49,58.49,0,0,1,4.86-8.1.23.23,0,0,1,.25-.08q.9.18,1.8.42C982.77,656.35,982.82,656.42,982.8,656.51Zm-2.11,1.93q-.95,1.5-1.8,3l1.18.24C980.28,660.62,980.49,659.53,980.69,658.44Z" transform="translate(-940.18 -654.26)"/><path class="cls-1" d="M988.78,658.74q-2.12,3.12-4,6.36c.83.32,1.65.67,2.46,1.06.1.06.13.14.09.22l-.72,1a.16.16,0,0,1-.23.06,34.42,34.42,0,0,0-3.81-1.53q-.13,0-.09-.15,2-4,4.37-7.82s.06-.07.09-.07a.35.35,0,0,1,.16,0c.53.2,1.05.41,1.57.64C988.77,658.58,988.81,658.66,988.78,658.74Z" transform="translate(-940.18 -654.26)"/><path class="cls-1" d="M993.79,667.56c-.65-.47-1.3-.91-2-1.33L990.2,668c.77.48,1.53,1,2.27,1.53q.15.12.06.24l-.89.84c-.06.06-.14.06-.24,0a32.21,32.21,0,0,0-3.53-2.24c-.09,0-.11-.11-.07-.17q2.72-3.54,5.71-6.91c.06-.06.15-.06.26,0A40.69,40.69,0,0,1,997.7,664c.11.1.13.19.07.26l-.93.81c-.07.07-.16.06-.27,0-.72-.56-1.45-1.08-2.2-1.58-.51.53-1,1.06-1.52,1.6.68.44,1.35.9,2,1.39.11.09.13.17.07.25l-.89.82A.21.21,0,0,1,993.79,667.56Z" transform="translate(-940.18 -654.26)"/><path class="cls-1" d="M992.6,671.87c-.08-.07-.1-.15,0-.22l.93-.82a.17.17,0,0,1,.23,0,5.58,5.58,0,0,0,1.31.79.82.82,0,0,0,.81-.31,4.19,4.19,0,0,0,.77-1.38c.23-.64.38-1.07.46-1.28a5.21,5.21,0,0,1,.8-1.48,1.86,1.86,0,0,1,1-.6,2,2,0,0,1,1.13.06,6.29,6.29,0,0,1,2.49,1.8c.11.12.13.22.06.28l-1.06.64a.22.22,0,0,1-.27,0c-.8-.8-1.36-1-1.64-.74a8,8,0,0,0-1.06,2,6.86,6.86,0,0,1-1.22,2.07C995.94,673.86,994.46,673.48,992.6,671.87Z" transform="translate(-940.18 -654.26)"/></svg>