<svg id="Capa_1" data-name="Capa 1" xmlns="http://www.w3.org/2000/svg" viewBox="0 0 64.06 44.87"><defs><style>.cls-1{stroke:#000;stroke-width:0.75px;}</style></defs><path class="cls-1" d="M966.11,515.58c-.6.54-1.18,1.1-1.75,1.68.47.66.94,1.32,1.42,2,.65-.67,1.32-1.32,2-1.93.1-.08.18-.08.25,0l.63,1.06c.05.06,0,.14,0,.23a35.29,35.29,0,0,0-3,3.08c-.07.08-.13.09-.19,0q-2.86-3.44-5.5-7.09c0-.07,0-.16.07-.26A44.35,44.35,0,0,1,963.5,511c.12-.08.21-.09.27,0l.59,1.08c0,.09,0,.17-.07.26-.69.59-1.37,1.21-2,1.85.4.62.81,1.23,1.23,1.84.59-.6,1.2-1.17,1.82-1.71.11-.09.19-.1.25,0l.61,1.05A.2.2,0,0,1,966.11,515.58Z" transform="translate(-959.51 -477.24)"/><path class="cls-1" d="M970.06,517.66c-.09.07-.16.07-.22,0l-.6-1.08a.17.17,0,0,1,.06-.22,4.87,4.87,0,0,0,1-1.1.8.8,0,0,0-.14-.85,4,4,0,0,0-1.17-1l-1.14-.73a5,5,0,0,1-1.26-1.1,1.89,1.89,0,0,1-.4-1,2.05,2.05,0,0,1,.28-1.08,6,6,0,0,1,2.18-2c.14-.08.23-.07.28,0,.13.39.27.78.41,1.16a.21.21,0,0,1-.1.25c-.89.59-1.22,1.08-1,1.41A8.23,8.23,0,0,0,970,511.7a6.86,6.86,0,0,1,1.73,1.65C972.61,514.88,972,516.2,970.06,517.66Z" transform="translate(-959.51 -477.24)"/><path class="cls-1" d="M977.64,507.39c0,1.39-1,2.4-3,3.33.33,1.07.67,2.13,1,3.19a.16.16,0,0,1-.09.21c-.41.22-.82.45-1.22.7q-.14.06-.18,0-1.62-4.17-3-8.46c0-.08,0-.16.13-.22a22,22,0,0,1,2.72-1.34c1.78-.72,2.89-.39,3.28.8A5.78,5.78,0,0,1,977.64,507.39Zm-4.24-.86q.39,1.44.81,2.88a2.92,2.92,0,0,0,1.47-1.1,2.2,2.2,0,0,0-.17-1.69.75.75,0,0,0-.58-.52,1.61,1.61,0,0,0-.91.14A5.91,5.91,0,0,0,973.4,506.53Z" transform="translate(-959.51 -477.24)"/><path class="cls-1" d="M983.84,507.31c-.75.15-1.49.32-2.22.52.07.81.15,1.61.24,2.42.85-.24,1.7-.44,2.56-.61.12,0,.19,0,.2.12l0,1.22c0,.09,0,.15-.14.18a33.16,33.16,0,0,0-3.91,1.05c-.1,0-.15,0-.18-.07-.5-2.93-.91-5.89-1.21-8.87,0-.09.06-.15.17-.19a45.28,45.28,0,0,1,4.47-1c.14,0,.21,0,.23.13l0,1.23c0,.1-.06.16-.18.19-.85.15-1.7.33-2.54.53,0,.74.1,1.47.15,2.2.76-.19,1.53-.37,2.3-.52.13,0,.2,0,.22.12v1.21C984,507.22,984,507.28,983.84,507.31Z" transform="translate(-959.51 -477.24)"/><path class="cls-1" d="M990.42,510.59a5.12,5.12,0,0,1-.64.14,10.29,10.29,0,0,1-1.23.14,2.23,2.23,0,0,1-1.62-.47,2.37,2.37,0,0,1-.73-1.55,17.05,17.05,0,0,1,.09-4.24,4,4,0,0,1,.6-1.87,2.43,2.43,0,0,1,1.13-.84,5.57,5.57,0,0,1,1.85-.33,12.15,12.15,0,0,1,1.34.05l.38.05a.14.14,0,0,1,.1.15c-.08.36-.15.72-.22,1.09,0,.1-.08.15-.17.14l-.59-.06c-.31,0-.57-.05-.76-.05a2,2,0,0,0-1.17.31,1.76,1.76,0,0,0-.54,1.12,19.69,19.69,0,0,0-.24,2.18,15,15,0,0,0,0,2.08.76.76,0,0,0,.92.8,8,8,0,0,0,.88-.1l.72-.07c.09,0,.14.05.14.15-.06.36-.11.72-.16,1.08A.19.19,0,0,1,990.42,510.59Z" transform="translate(-959.51 -477.24)"/><path class="cls-1" d="M995.94,502.14q-1.29,4.29-2.29,8.62a.16.16,0,0,1-.18.13l-1.35-.06c-.1,0-.14,0-.14-.12.53-2.93,1.15-5.85,1.88-8.76,0-.08.1-.12.23-.11.55,0,1.1.08,1.66.14C995.89,502,996,502.05,995.94,502.14Z" transform="translate(-959.51 -477.24)"/><path class="cls-1" d="M1002.14,503.44c-.5,2.91-1.08,5.81-1.72,8.7,0,.08-.09.11-.2.09-.45-.12-.89-.24-1.34-.34-.09,0-.13-.07-.11-.14l.39-1.9c-.52-.11-1-.21-1.55-.3-.3.55-.58,1.1-.86,1.66a.21.21,0,0,1-.07.1.24.24,0,0,1-.13,0c-.44-.08-.89-.14-1.34-.19-.09,0-.13-.05-.12-.13a58.49,58.49,0,0,1,4.86-8.1.23.23,0,0,1,.25-.08l1.8.42C1002.11,503.29,1002.16,503.35,1002.14,503.44Zm-2.11,1.93q-.94,1.5-1.8,3l1.17.24Q999.73,507,1000,505.37Z" transform="translate(-959.51 -477.24)"/><path class="cls-1" d="M1008.11,505.67c-1.4,2.08-2.75,4.2-4,6.36.83.32,1.65.67,2.46,1.06.1.06.13.14.09.22-.24.33-.49.66-.72,1a.16.16,0,0,1-.23.06,34.42,34.42,0,0,0-3.81-1.53q-.14,0-.09-.15,2-4,4.37-7.82a.18.18,0,0,1,.09-.07.3.3,0,0,1,.15,0c.53.2,1.06.42,1.58.64C1008.11,505.51,1008.15,505.59,1008.11,505.67Z" transform="translate(-959.51 -477.24)"/><path class="cls-1" d="M1013.13,514.49c-.65-.47-1.3-.91-2-1.33l-1.62,1.81c.77.48,1.53,1,2.27,1.53q.15.12.06.24l-.9.84c-.05.06-.13.07-.23,0a33.79,33.79,0,0,0-3.53-2.24c-.09-.05-.11-.1-.08-.17q2.73-3.54,5.72-6.91c.06-.06.15,0,.26,0A42,42,0,0,1,1017,511c.11.1.13.19.07.26l-.93.81c-.07.07-.16.06-.27,0-.72-.55-1.45-1.08-2.2-1.58l-1.52,1.6c.68.44,1.35.91,2,1.39.11.09.13.17.07.25-.3.27-.6.54-.89.82A.2.2,0,0,1,1013.13,514.49Z" transform="translate(-959.51 -477.24)"/><path class="cls-1" d="M1011.94,518.8c-.08-.07-.1-.14,0-.22l.93-.82a.17.17,0,0,1,.23,0,5.24,5.24,0,0,0,1.31.79.82.82,0,0,0,.81-.31,4,4,0,0,0,.76-1.38c.24-.64.39-1.07.47-1.28a5,5,0,0,1,.8-1.47,1.81,1.81,0,0,1,.95-.61,2,2,0,0,1,1.13.06,6.23,6.23,0,0,1,2.49,1.81q.16.18.06.27l-1.06.64a.22.22,0,0,1-.27,0c-.8-.79-1.36-1-1.64-.74a8,8,0,0,0-1.06,2,6.63,6.63,0,0,1-1.23,2.07C1015.28,520.79,1013.8,520.41,1011.94,518.8Z" transform="translate(-959.51 -477.24)"/><text x="-959.51" y="-477.24"/></svg>