<svg id="Capa_1" data-name="Capa 1" xmlns="http://www.w3.org/2000/svg" viewBox="0 0 261.33 72.53"><defs><style>.cls-1{stroke:#000;stroke-width:1.5px;}</style></defs><path class="cls-1" d="M846.38,665.08c-.63.53-1.25,1.06-1.88,1.61a3.49,3.49,0,0,0-1.06,1.85,3.75,3.75,0,0,0,.85,2.38,43.53,43.53,0,0,0,2.76,3.53,36.23,36.23,0,0,0,2.69,3,2.58,2.58,0,0,0,1.58.85,1.4,1.4,0,0,0,1.1-.43l.68-.74c-1.42-1.78-2.83-3.56-4.23-5.36a.36.36,0,0,1,0-.46c.6-.66,1.21-1.31,1.82-1.95.18-.18.34-.2.47-.07,1.81,2.4,3.65,4.79,5.49,7.16a.37.37,0,0,1,0,.47,43.22,43.22,0,0,1-2.84,3.29,3.83,3.83,0,0,1-4.64,1.15,4.47,4.47,0,0,1-1.24-.77q-.54-.48-1.23-1.17a41.5,41.5,0,0,1-4.75-5.61,9.22,9.22,0,0,1-1.77-3.53,4.67,4.67,0,0,1,.33-2.63,9.47,9.47,0,0,1,1.93-2.81,20,20,0,0,1,1.73-1.65l.54-.4c.1-.07.22,0,.33.08l1.33,1.81A.31.31,0,0,1,846.38,665.08Z" transform="translate(-839.38 -610.82)"/><path class="cls-1" d="M860.43,662.34q-1.57,1.45-3.12,3,1.4,2,2.82,4.05c1.23-1.2,2.48-2.37,3.74-3.53.18-.14.34-.14.46,0l1.35,2.1a.36.36,0,0,1-.06.46q-3,2.73-5.84,5.64c-.14.14-.27.15-.37,0q-5.42-7.32-10.64-14.8a.37.37,0,0,1,.1-.46q2.88-2.84,5.87-5.52c.21-.14.37-.14.49,0l1.32,2.12a.37.37,0,0,1-.08.49q-1.72,1.55-3.43,3.14c.84,1.24,1.67,2.48,2.52,3.71,1-1,2.1-2,3.16-3,.19-.16.35-.16.48,0,.43.7.87,1.4,1.31,2.09A.36.36,0,0,1,860.43,662.34Z" transform="translate(-839.38 -610.82)"/><path class="cls-1" d="M861.6,648.3q3.79,6.66,7.73,13.21c1.3-1.1,2.6-2.17,3.93-3.22.19-.13.34-.12.46,0,.39.74.79,1.47,1.18,2.2a.32.32,0,0,1-.08.46c-2.08,1.65-4.13,3.37-6.15,5.14q-.21.18-.36,0-4.87-7.68-9.55-15.51a.4.4,0,0,1,0-.22.48.48,0,0,1,.17-.22c.74-.64,1.49-1.26,2.24-1.88Q861.44,648.09,861.6,648.3Z" transform="translate(-839.38 -610.82)"/><path class="cls-1" d="M874.43,639.3q5.52,7.14,10.9,14.38c.1.15.06.3-.12.43-.74.5-1.48,1-2.21,1.52-.15.09-.27.08-.35,0l-2.31-3.19c-.82.57-1.63,1.16-2.43,1.75.41,1.2.84,2.4,1.27,3.59a.49.49,0,0,1,0,.24.35.35,0,0,1-.15.19c-.72.53-1.43,1.07-2.14,1.61-.14.1-.25.09-.34,0q-3-9-5.35-18.27a.39.39,0,0,1,.17-.44c.86-.61,1.72-1.21,2.59-1.8A.29.29,0,0,1,874.43,639.3Zm.43,5.58c.71,2.26,1.44,4.52,2.2,6.76.6-.43,1.2-.86,1.81-1.28Q876.88,647.62,874.86,644.88Z" transform="translate(-839.38 -610.82)"/><path class="cls-1" d="M879.59,636c2.6-1.63,5.25-3.2,7.92-4.69.2-.1.34-.06.43.11.26.79.53,1.57.8,2.35a.42.42,0,0,1,0,.26c0,.06-.07.12-.19.19q-1.17.66-2.34,1.35,2.73,7.19,5.63,14.3a.31.31,0,0,1-.14.42c-.76.45-1.51.92-2.26,1.39-.15.08-.26.06-.34-.07q-3-7.08-5.94-14.24c-.79.47-1.58,1-2.37,1.45-.2.12-.35.1-.44,0l-1-2.32C879.33,636.25,879.39,636.1,879.59,636Z" transform="translate(-839.38 -610.82)"/><path class="cls-1" d="M893.72,628.69q2.74,8.64,5.72,17.19a.31.31,0,0,1-.17.41L897,647.54c-.17.08-.28.06-.35-.08q-3.15-8.54-6.08-17.16a.36.36,0,0,1,.21-.41c.83-.44,1.66-.88,2.5-1.31C893.49,628.49,893.64,628.52,893.72,628.69Z" transform="translate(-839.38 -610.82)"/><path class="cls-1" d="M907.75,622.75q2,8.84,4.22,17.62a.32.32,0,0,1-.19.39l-2.27,1a.23.23,0,0,1-.32-.11q-3.63-5.4-7.45-10.71,2,6,4.09,11.95a.29.29,0,0,1-.18.41l-2.33,1.13c-.17.08-.29,0-.35-.09q-2.78-8.65-5.32-17.41a.35.35,0,0,1,.22-.4l2.57-1.25a.41.41,0,0,1,.27,0,.67.67,0,0,1,.18.17q3.65,5,7.11,10.1-1.79-5.7-3.52-11.43c-.05-.17,0-.3.25-.39l2.56-1.12C907.53,622.52,907.68,622.57,907.75,622.75Z" transform="translate(-839.38 -610.82)"/><path class="cls-1" d="M917.8,619.41q3.39,8.37,6.63,16.79c.05.17,0,.3-.22.37l-2.47.85c-.17.05-.28,0-.32-.13-.46-1.24-.91-2.47-1.37-3.7-.92.32-1.83.66-2.74,1,.09,1.26.18,2.53.29,3.79a.41.41,0,0,1,0,.24.33.33,0,0,1-.19.14l-2.41,1c-.16,0-.26,0-.31-.13q-.52-9.42-.42-19a.39.39,0,0,1,.27-.38l2.9-1A.29.29,0,0,1,917.8,619.41Zm-1,5.47c.09,2.36.21,4.73.35,7.09l2-.74C918.38,629.11,917.59,627,916.79,624.88Z" transform="translate(-839.38 -610.82)"/><path class="cls-1" d="M926.94,636c-.2.05-.32,0-.37-.19-.13-.83-.25-1.66-.37-2.49a.35.35,0,0,1,.24-.37,7,7,0,0,0,2.38-1.24,1.74,1.74,0,0,0,.23-1.7,10,10,0,0,0-1.41-2.85c-.76-1.12-1.25-1.87-1.49-2.25a12,12,0,0,1-1.48-3,4.67,4.67,0,0,1-.1-2.27,3.6,3.6,0,0,1,1-1.76,8.59,8.59,0,0,1,4.33-2.12c.25-.06.39,0,.44.21.05.83.12,1.66.18,2.49a.35.35,0,0,1-.26.39c-1.71.49-2.45,1.15-2.26,1.94a18.85,18.85,0,0,0,2.12,4,16.86,16.86,0,0,1,2.12,4.33C933,632.65,931.23,634.86,926.94,636Z" transform="translate(-839.38 -610.82)"/><path class="cls-1" d="M950,616.35a5,5,0,0,1-2.47,5.23,3.31,3.31,0,0,1,1.74,1,3.51,3.51,0,0,1,.82,2,7.15,7.15,0,0,1-.12,2.45,6.27,6.27,0,0,1-1,2.22c-1,1.45-2.73,2.39-5.2,2.86l-2.62.53c-.19,0-.29,0-.31-.17q-.55-9-.87-18.08a.44.44,0,0,1,.08-.31,8.15,8.15,0,0,1,1.68-.45c1.07-.24,2.09-.42,3.07-.56a5.17,5.17,0,0,1,3.73.57A3.59,3.59,0,0,1,950,616.35Zm-5.65,6.87c-.35,0-.59.09-.7.12q.11,2.92.22,5.85a3.48,3.48,0,0,0,2.55-1.48,4.24,4.24,0,0,0,.54-3,1.67,1.67,0,0,0-.8-1.26A2.62,2.62,0,0,0,944.37,623.22Zm-.76-1.79c2.49-.4,3.6-1.74,3.29-4.13-.16-1.25-1-1.79-2.47-1.58a9.71,9.71,0,0,0-1,.18C943.5,617.74,943.55,619.58,943.61,621.43Z" transform="translate(-839.38 -610.82)"/><path class="cls-1" d="M960.16,612.05q1.27,8.93,2.38,17.88c0,.18-.1.28-.31.31l-2.58.23c-.17,0-.27-.06-.28-.21-.14-1.31-.28-2.61-.43-3.92l-2.87.31q-.33,1.88-.63,3.75a.46.46,0,0,1-.08.23.41.41,0,0,1-.22.09c-.85.1-1.7.21-2.54.33-.17,0-.26,0-.27-.2q1.74-9.27,4.11-18.49a.38.38,0,0,1,.36-.3c1-.11,2-.2,3-.28A.28.28,0,0,1,960.16,612.05Zm-2.28,5.05q-.72,3.48-1.35,7l2.13-.22Q958.29,620.48,957.88,617.1Z" transform="translate(-839.38 -610.82)"/><path class="cls-1" d="M972.79,611.86q-1,6.52-1.83,13a5.7,5.7,0,0,1-2.17,4.24,8.46,8.46,0,0,1-4.57,1.19c-.21,0-.31-.08-.32-.27.07-.78.14-1.56.22-2.34a.32.32,0,0,1,.31-.3c1.53,0,2.49-.38,2.9-1a2.88,2.88,0,0,0,.37-1.21q.74-6.64,1.61-13.27a.28.28,0,0,1,.34-.28l2.79,0C972.68,611.59,972.79,611.68,972.79,611.86Z" transform="translate(-839.38 -610.82)"/><path class="cls-1" d="M983.16,612.35q.09,9,0,18c0,.18-.14.27-.35.27-.86,0-1.73-.08-2.59-.1-.18,0-.26-.1-.25-.25,0-1.31.06-2.63.08-3.94-1,0-1.93,0-2.89-.06l-1.11,3.63c0,.11-.06.19-.11.22a.35.35,0,0,1-.22.07h-2.57c-.16,0-.24-.08-.24-.24q2.92-9,6.48-17.81a.38.38,0,0,1,.39-.25l3,.11A.31.31,0,0,1,983.16,612.35Zm-2.92,4.73q-1.15,3.36-2.24,6.73l2.14.05Q980.2,620.47,980.24,617.08Z" transform="translate(-839.38 -610.82)"/><path class="cls-1" d="M985.58,631.14c-.21,0-.3-.12-.28-.31l.57-2.45a.32.32,0,0,1,.35-.25,7,7,0,0,0,2.66-.3,1.75,1.75,0,0,0,.83-1.5,9.77,9.77,0,0,0-.28-3.17c-.28-1.32-.47-2.19-.56-2.63a12.25,12.25,0,0,1-.26-3.37,4.72,4.72,0,0,1,.73-2.15,3.75,3.75,0,0,1,1.54-1.3,8.58,8.58,0,0,1,4.79-.4c.25,0,.35.15.32.35l-.73,2.38a.37.37,0,0,1-.39.27c-1.76-.15-2.69.19-2.8,1a18.44,18.44,0,0,0,.5,4.51,17,17,0,0,1,.39,4.82C992.43,630.19,990,631.6,985.58,631.14Z" transform="translate(-839.38 -610.82)"/><path class="cls-1" d="M1009.51,626.86c-1.33-.28-2.66-.54-4-.79q-.82,2.32-1.64,4.65c1.59.29,3.18.61,4.77.95.21.06.29.19.24.38-.3.78-.61,1.55-.92,2.32-.05.16-.18.23-.39.22-2.5-.53-5-1-7.52-1.42-.18,0-.26-.13-.23-.27q2.79-8.65,5.83-17.25a.35.35,0,0,1,.41-.2c2.5.45,5,1,7.47,1.51.22.09.31.22.26.4l-1,2.31a.34.34,0,0,1-.42.22c-1.43-.32-2.87-.63-4.31-.92-.52,1.4-1,2.8-1.54,4.2,1.34.26,2.68.53,4,.82.22.06.31.19.26.38l-.93,2.28A.34.34,0,0,1,1009.51,626.86Z" transform="translate(-839.38 -610.82)"/><path class="cls-1" d="M1028.26,621.83q-4.12,8.08-8,16.25a.34.34,0,0,1-.4.18c-.8-.22-1.6-.44-2.4-.64a.23.23,0,0,1-.17-.29q.68-6.48,1.14-13-2.28,5.89-4.49,11.81a.3.3,0,0,1-.4.19l-2.5-.61c-.17-.05-.24-.14-.2-.29q3.41-8.43,7-16.79a.35.35,0,0,1,.42-.17l2.76.68c.12,0,.2.08.22.14a.49.49,0,0,1,0,.24c-.28,4.11-.62,8.22-1,12.3q2.26-5.52,4.61-11c.06-.17.21-.21.44-.15.9.25,1.79.51,2.68.78C1028.24,621.52,1028.32,621.65,1028.26,621.83Z" transform="translate(-839.38 -610.82)"/><path class="cls-1" d="M1043.56,628.08q-3,8.5-6.21,16.95c-.07.16-.22.2-.42.13-.81-.35-1.62-.69-2.44-1-.16-.07-.21-.18-.14-.32.48-1.22,1-2.44,1.43-3.67-.91-.37-1.81-.72-2.73-1.07-.78,1-1.55,2-2.31,3a.45.45,0,0,1-.18.17.35.35,0,0,1-.24,0c-.81-.31-1.62-.61-2.44-.9q-.24-.09-.15-.3,5.89-7.39,12.33-14.44a.41.41,0,0,1,.46-.1l2.86,1.18A.3.3,0,0,1,1043.56,628.08Zm-4.42,3.4q-2.27,2.74-4.46,5.53l2,.8Q1037.93,634.65,1039.14,631.48Z" transform="translate(-839.38 -610.82)"/><path class="cls-1" d="M1049.9,631c2.59,1.22,5.17,2.51,7.72,3.87a.31.31,0,0,1,.13.45q-6.88,4.86-13.29,10.15c1.26.62,2.52,1.25,3.77,1.89a.3.3,0,0,1,.13.42l-1.49,2a.32.32,0,0,1-.43.1q-3.62-1.86-7.31-3.52-.24-.12-.15-.33,6.23-5.52,13-10.65c-1.24-.63-2.5-1.24-3.75-1.83-.21-.12-.27-.25-.2-.4l1.46-2.08A.33.33,0,0,1,1049.9,631Z" transform="translate(-839.38 -610.82)"/><path class="cls-1" d="M1063.83,639.13q-4,4.73-7.83,9.53a16.75,16.75,0,0,0-1.21,1.61,1.38,1.38,0,0,0,.56,2,1.37,1.37,0,0,0,1.46,0,6.91,6.91,0,0,0,1.85-1.68q4-4.78,8.16-9.52a.34.34,0,0,1,.47,0c.83.51,1.64,1,2.46,1.55.19.15.24.29.13.44q-4.16,4.57-8.23,9.21-2.49,2.85-4.62,3.1a5.36,5.36,0,0,1-3.5-.94,4.74,4.74,0,0,1-2.23-2.58,4,4,0,0,1,.59-3.2A16,16,0,0,1,1053,647c2.54-3.27,5.1-6.52,7.71-9.74a.34.34,0,0,1,.19-.13.46.46,0,0,1,.25.08c.84.47,1.67,1,2.5,1.45C1063.88,638.83,1063.93,639,1063.83,639.13Zm7.17-.6c-1.13.24-2.25.48-3.37.74a1,1,0,0,1-.69-.13c-.54-.33-1.08-.66-1.63-1-.17-.13-.21-.25-.14-.37l2.3-1.4a.68.68,0,0,1,.69.1c.9.52,1.79,1,2.69,1.58C1071.05,638.23,1071.1,638.38,1071,638.53Z" transform="translate(-839.38 -610.82)"/><path class="cls-1" d="M1067.67,663.86a8.17,8.17,0,0,1-1.17-.58,16.38,16.38,0,0,1-2.06-1.32,4,4,0,0,1-1.78-2.82,4.76,4.76,0,0,1,1-3.3,40.22,40.22,0,0,1,5.8-6.39,9.35,9.35,0,0,1,3.27-2.19,4.45,4.45,0,0,1,2.58,0,9,9,0,0,1,2.92,1.54,21.47,21.47,0,0,1,1.78,1.51l.45.49a.26.26,0,0,1,0,.35l-1.65,1.52c-.16.13-.3.15-.41.06s-.38-.35-.77-.74a12,12,0,0,0-1-.92,3.23,3.23,0,0,0-2-.81,3.79,3.79,0,0,0-2.17,1.13c-.84.74-1.9,1.78-3.17,3.14a39.22,39.22,0,0,0-2.77,3.2,1.53,1.53,0,0,0,.31,2.41c.26.2.75.5,1.45.92s1.09.68,1.18.75a.25.25,0,0,1,0,.4l-1.62,1.56A.39.39,0,0,1,1067.67,663.86Z" transform="translate(-839.38 -610.82)"/><path class="cls-1" d="M1088.44,657.93q-5.42,7.23-11,14.34c-.13.13-.28.13-.46,0-.69-.6-1.4-1.2-2.1-1.78-.14-.13-.16-.24-.06-.36.83-1,1.65-2.05,2.47-3.07-.79-.66-1.58-1.3-2.37-1.94-1,.71-2.1,1.43-3.14,2.16a.4.4,0,0,1-.23.1.42.42,0,0,1-.22-.09c-.71-.57-1.43-1.12-2.14-1.67-.14-.11-.16-.22-.06-.34q7.9-5.21,16.26-9.91a.41.41,0,0,1,.48,0c.83.69,1.65,1.39,2.47,2.09A.3.3,0,0,1,1088.44,657.93Zm-5.32,1.83q-3,1.9-6,3.87l1.75,1.45Q1081,662.43,1083.12,659.76Z" transform="translate(-839.38 -610.82)"/><path class="cls-1" d="M1087.47,682.53c-.12.11-.26.07-.43-.11-.7-.73-1.41-1.45-2.12-2.17a.35.35,0,0,1,0-.37c1.07-2.55,2.09-5.13,3.08-7.74-2,1.5-4,3-6,4.54a.31.31,0,0,1-.45,0q-1-1-2-1.89c-.13-.15-.14-.27,0-.37q7.07-5.67,14.29-11.14a.49.49,0,0,1,.31-.11,7.75,7.75,0,0,1,1.24,1c.74.66,1.68,1.57,2.81,2.77a6,6,0,0,1,1.83,3.52,3.24,3.24,0,0,1-1.11,2.79,8.13,8.13,0,0,1-2.49,1.57,6,6,0,0,1-2.73.36,7.1,7.1,0,0,1-2.93-1c-1,2.78-2,5.52-3.15,8.24A.24.24,0,0,1,1087.47,682.53Zm7.11-15.3c-1.61,1.18-3.21,2.36-4.81,3.56a4.11,4.11,0,0,0,4,1.25,4.37,4.37,0,0,0,1.9-1,1.77,1.77,0,0,0,.72-1.4,2.47,2.47,0,0,0-.76-1.42A8.42,8.42,0,0,0,1094.58,667.23Z" transform="translate(-839.38 -610.82)"/></svg>