<svg id="Capa_1" data-name="Capa 1" xmlns="http://www.w3.org/2000/svg" viewBox="0 0 203.11 57.96"><defs><style>.cls-1{stroke:#000;}</style></defs><path class="cls-1" d="M871.2,782.53c-.68.56-1.36,1.12-2,1.7a3.94,3.94,0,0,0-1.2,1.94,3.54,3.54,0,0,0,.73,2.42,41.64,41.64,0,0,0,2.64,3.54,34.63,34.63,0,0,0,2.6,2.94,2.43,2.43,0,0,0,1.56.82,1.49,1.49,0,0,0,1.14-.47c.3-.31.55-.56.73-.76q-2-2.67-4-5.37a.39.39,0,0,1,.08-.48c.65-.68,1.31-1.36,2-2,.2-.18.36-.2.49-.07q2.55,3.63,5.17,7.21a.37.37,0,0,1-.06.47c-.78,1-1.79,2.09-3,3.38-1.48,1.55-3,2-4.74,1.31a3.83,3.83,0,0,1-1.23-.75c-.35-.31-.76-.69-1.21-1.15a36.28,36.28,0,0,1-4.6-5.57,8.38,8.38,0,0,1-1.64-3.57,4.92,4.92,0,0,1,.48-2.73,10.8,10.8,0,0,1,2.16-3,22.39,22.39,0,0,1,1.89-1.74l.59-.44c.11-.06.22,0,.34.09l1.24,1.82A.32.32,0,0,1,871.2,782.53Z" transform="translate(-864 -742.03)"/><path class="cls-1" d="M885.82,779.7q-1.74,1.45-3.44,3c.85,1.37,1.71,2.75,2.58,4.11q2-1.8,4.08-3.5c.19-.15.35-.14.47,0l1.2,2.15c.08.14,0,.29-.1.46-2.16,1.78-4.26,3.65-6.32,5.6-.15.14-.27.15-.37,0q-5.05-7.39-9.83-15a.39.39,0,0,1,.14-.47c2.14-2,4.34-3.83,6.57-5.62.23-.14.4-.14.51,0l1.15,2.18a.37.37,0,0,1-.13.49c-1.28,1-2.56,2.09-3.81,3.17q1.13,1.89,2.27,3.78,1.73-1.53,3.5-3c.21-.16.37-.15.49,0l1.16,2.13A.36.36,0,0,1,885.82,779.7Z" transform="translate(-864 -742.03)"/><path class="cls-1" d="M888.44,765.56q3.16,6.84,6.55,13.55c1.43-1,2.87-2.06,4.34-3,.2-.12.36-.1.46.07.32.75.65,1.5,1,2.25a.33.33,0,0,1-.13.45q-3.45,2.31-6.75,4.87c-.15.11-.27.11-.36,0q-4.29-7.86-8.28-15.89a.37.37,0,0,1,0-.22.62.62,0,0,1,.2-.22c.84-.62,1.69-1.23,2.54-1.83C888.18,765.41,888.34,765.41,888.44,765.56Z" transform="translate(-864 -742.03)"/><path class="cls-1" d="M903,757.21q4.72,7.51,9.24,15.14c.08.16,0,.3-.18.41-.82.43-1.64.87-2.45,1.32-.16.09-.28.06-.35-.07l-2-3.34q-1.37.75-2.7,1.56c.27,1.22.56,2.44.86,3.65a.43.43,0,0,1,0,.25s-.07.11-.17.17c-.79.48-1.57,1-2.35,1.46-.15.1-.27.08-.34,0q-2-9.12-3.25-18.54a.42.42,0,0,1,.24-.43c1-.55,2-1.1,3-1.62A.31.31,0,0,1,903,757.21Zm-.34,5.59c.43,2.31.89,4.6,1.38,6.89.67-.39,1.35-.78,2-1.15Q904.33,765.66,902.61,762.8Z" transform="translate(-864 -742.03)"/><path class="cls-1" d="M908.83,754.32q4.45-2.1,9-3.86c.22-.07.36,0,.42.16.14.8.29,1.6.44,2.39a.57.57,0,0,1,0,.27.5.5,0,0,1-.23.17c-.9.34-1.79.7-2.67,1.07q1.65,7.38,3.55,14.68a.31.31,0,0,1-.21.4l-2.5,1.13c-.16.07-.27,0-.33-.1q-2.1-7.27-4-14.63c-.9.39-1.8.8-2.69,1.22-.23.1-.38.06-.45-.09l-.65-2.39C908.52,754.57,908.6,754.43,908.83,754.32Z" transform="translate(-864 -742.03)"/><path class="cls-1" d="M924.83,748.64q1.27,8.83,2.88,17.58a.32.32,0,0,1-.23.39l-2.54.92c-.18.07-.3,0-.35-.11q-1.85-8.74-3.36-17.58c0-.17.08-.3.29-.38,1-.33,1.9-.66,2.85-1C924.63,748.42,924.78,748.47,924.83,748.64Z" transform="translate(-864 -742.03)"/><path class="cls-1" d="M940.7,744.91q.22,8.93.77,17.8a.34.34,0,0,1-.27.35c-.84.2-1.67.42-2.51.64a.24.24,0,0,1-.3-.16c-1.78-3.88-3.66-7.74-5.63-11.55q.94,6.13,2,12.24c0,.19,0,.31-.26.37l-2.58.77c-.18,0-.3,0-.34-.14q-1.3-8.84-2.29-17.74c0-.17.1-.29.31-.36,1-.3,1.95-.58,2.94-.86a.43.43,0,0,1,.28,0,.52.52,0,0,1,.16.19q2.82,5.41,5.39,10.93-.72-5.83-1.36-11.67c0-.17.09-.29.35-.35l2.91-.67Q940.66,744.64,940.7,744.91Z" transform="translate(-864 -742.03)"/><path class="cls-1" d="M952,743.5Q953.6,752.21,955,761c0,.18-.09.28-.32.32l-2.7.33c-.18,0-.27-.05-.29-.19-.2-1.28-.39-2.56-.6-3.83-1,.14-2,.29-3,.46-.18,1.23-.35,2.47-.51,3.7a.43.43,0,0,1-.07.24.41.41,0,0,1-.22.1c-.89.15-1.77.31-2.65.48-.18,0-.27,0-.3-.17.92-6.14,2.11-12.29,3.6-18.41a.41.41,0,0,1,.37-.31c1.09-.16,2.18-.3,3.27-.43C951.81,743.24,951.93,743.32,952,743.5Zm-2.3,5.07c-.42,2.31-.82,4.61-1.18,6.91l2.26-.33C950.39,753,950,750.77,949.67,748.57Z" transform="translate(-864 -742.03)"/><path class="cls-1" d="M957.62,761.31c-.22,0-.33-.07-.34-.26.06-.82.12-1.64.19-2.46a.34.34,0,0,1,.33-.3,8.09,8.09,0,0,0,2.72-.69,1.66,1.66,0,0,0,.63-1.58,8.68,8.68,0,0,0-.77-3c-.51-1.24-.85-2.07-1-2.48a10.64,10.64,0,0,1-.81-3.23,4.22,4.22,0,0,1,.42-2.19,3.74,3.74,0,0,1,1.44-1.49,9.86,9.86,0,0,1,5.06-1.07c.27,0,.4.11.4.3-.15.81-.29,1.61-.43,2.42a.37.37,0,0,1-.37.31c-1.9.09-2.84.56-2.83,1.36a17.49,17.49,0,0,0,1.21,4.32,15.15,15.15,0,0,1,1.13,4.62C964.56,759.4,962.23,761.08,957.62,761.31Z" transform="translate(-864 -742.03)"/><path class="cls-1" d="M976.61,743.44a9.34,9.34,0,0,1,1.52,0c1,0,2.28.14,3.94.35a5.62,5.62,0,0,1,3.65,1.68,3.77,3.77,0,0,1,.79,3.27,45.56,45.56,0,0,1-2.4,8.28,8.31,8.31,0,0,1-2.22,3.52,5.62,5.62,0,0,1-3.38,1.07c-.66,0-1.45,0-2.39-.07s-2.15-.13-3.23-.18q-.28,0-.27-.24,1.77-8.76,3.87-17.48A.39.39,0,0,1,976.61,743.44Zm3,2.79q-1.64,6.24-3.1,12.5a6.31,6.31,0,0,0,2.82-.36,3.17,3.17,0,0,0,1.34-1.85c.34-.95.73-2.25,1.17-3.91a36.81,36.81,0,0,0,.91-4.09,1.73,1.73,0,0,0-.38-1.5,2.44,2.44,0,0,0-1.52-.67A11.56,11.56,0,0,0,979.63,746.23Z" transform="translate(-864 -742.03)"/><path class="cls-1" d="M996.41,757.13c-1.41-.32-2.82-.61-4.24-.89-.57,1.52-1.13,3-1.68,4.55q2.52.48,5,1.07c.23.06.31.19.26.38l-1,2.25a.35.35,0,0,1-.41.21c-2.61-.6-5.24-1.12-7.88-1.54q-.28-.06-.24-.27,2.78-8.5,5.86-16.92c.07-.15.22-.21.44-.18q4,.74,8.07,1.73c.23.09.33.22.28.4l-1,2.24a.38.38,0,0,1-.46.21c-1.53-.38-3.08-.74-4.62-1.07-.54,1.37-1.07,2.74-1.6,4.11,1.43.29,2.87.59,4.29.93.24.07.33.2.28.39-.33.74-.65,1.47-1,2.21A.35.35,0,0,1,996.41,757.13Z" transform="translate(-864 -742.03)"/><path class="cls-1" d="M1014.85,752.73q-3.76,6.51-7.32,13.14c1.63.55,3.25,1.15,4.86,1.77q.33.15.21.42l-1.28,2.09a.34.34,0,0,1-.45.16q-3.79-1.48-7.65-2.68c-.18-.06-.24-.16-.19-.3q4-8,8.23-15.9a.38.38,0,0,1,.17-.15.5.5,0,0,1,.28,0c1,.33,1.92.66,2.88,1C1014.83,752.42,1014.92,752.56,1014.85,752.73Z" transform="translate(-864 -742.03)"/><path class="cls-1" d="M1025.21,768.6c-1.32-.66-2.64-1.31-4-1.93q-1.38,2-2.74,4,2.37,1.1,4.7,2.29c.2.12.26.27.16.44l-1.48,2a.35.35,0,0,1-.45.1q-3.66-1.86-7.4-3.47c-.17-.08-.23-.19-.17-.32q4.74-7.57,9.79-15a.39.39,0,0,1,.48-.07c2.54,1.16,5,2.39,7.54,3.71.21.15.27.31.18.47l-1.53,1.92a.37.37,0,0,1-.5.09c-1.42-.76-2.86-1.5-4.31-2.2l-2.55,3.59q2,1,4,2,.32.2.18.45c-.5.63-1,1.27-1.49,1.91A.35.35,0,0,1,1025.21,768.6Z" transform="translate(-864 -742.03)"/><path class="cls-1" d="M1031.83,781.73a10.56,10.56,0,0,1-1.24-.54,19.17,19.17,0,0,1-2.22-1.22,4.38,4.38,0,0,1-2.1-2.71,4.57,4.57,0,0,1,.68-3.35,36.59,36.59,0,0,1,5.23-6.68,8.66,8.66,0,0,1,3.12-2.34,4.72,4.72,0,0,1,2.68-.11,10,10,0,0,1,3.2,1.47,23.58,23.58,0,0,1,2,1.48l.53.48a.26.26,0,0,1,0,.36l-1.55,1.57c-.15.14-.3.17-.43.07s-.42-.34-.87-.73a12.91,12.91,0,0,0-1.12-.9,3.56,3.56,0,0,0-2.16-.76,3.65,3.65,0,0,0-2.13,1.22,42.22,42.22,0,0,0-2.91,3.27,34,34,0,0,0-2.5,3.34,1.55,1.55,0,0,0,.57,2.39c.28.18.8.46,1.56.86s1.18.63,1.28.7a.25.25,0,0,1,.07.4l-1.5,1.62A.38.38,0,0,1,1031.83,781.73Z" transform="translate(-864 -742.03)"/><path class="cls-1" d="M1056.22,778.6q-6.95,5.63-13.64,11.5a.35.35,0,0,1-.45,0c-.74-.61-1.47-1.2-2.21-1.77-.16-.13-.19-.25-.09-.37,1.89-1.77,3.79-3.52,5.72-5.26-1-.76-2-1.52-2.94-2.25q-2.71,2.59-5.38,5.23a.32.32,0,0,1-.46,0c-.76-.55-1.52-1.09-2.29-1.62-.16-.12-.19-.24-.11-.36q6.18-6.47,12.61-12.72a.4.4,0,0,1,.49,0c.85.61,1.7,1.24,2.54,1.88.21.17.26.33.14.47q-2.79,2.55-5.53,5.13c1,.76,2,1.54,3,2.33,1.83-1.63,3.68-3.25,5.53-4.85.14-.11.31-.08.5.08.82.66,1.64,1.34,2.45,2C1056.3,778.3,1056.34,778.47,1056.22,778.6Z" transform="translate(-864 -742.03)"/><path class="cls-1" d="M1057.64,794.08c-1.09-1.11-2.2-2.21-3.32-3.28-1.3,1-2.59,1.93-3.89,2.91,1.33,1.26,2.64,2.55,3.93,3.89q.24.28,0,.48l-2.05,1.36a.38.38,0,0,1-.47-.07q-3-3.12-6.21-6c-.15-.14-.18-.27-.07-.38q6.93-5.64,14.11-11a.42.42,0,0,1,.49.1q3.21,3,6.29,6.27c.16.22.17.39,0,.52l-2.07,1.31a.39.39,0,0,1-.52-.09c-1.17-1.25-2.36-2.48-3.57-3.67q-1.8,1.27-3.58,2.57,1.7,1.63,3.34,3.35c.18.2.19.37.05.5l-2,1.31A.36.36,0,0,1,1057.64,794.08Z" transform="translate(-864 -742.03)"/></svg>