<svg id="Capa_1" data-name="Capa 1" xmlns="http://www.w3.org/2000/svg" viewBox="0 0 193.78 56"><path d="M871.62,782.83l-2,1.7a4,4,0,0,0-1.2,2,3.55,3.55,0,0,0,.75,2.41,40.63,40.63,0,0,0,2.65,3.53,33.75,33.75,0,0,0,2.61,2.93,2.47,2.47,0,0,0,1.57.82,1.54,1.54,0,0,0,1.13-.47l.73-.76q-2.05-2.67-4.05-5.36a.38.38,0,0,1,.07-.48c.65-.68,1.3-1.36,2-2,.2-.18.37-.2.49-.07q2.57,3.62,5.2,7.19a.37.37,0,0,1-.06.47c-.77,1-1.78,2.08-3,3.38-1.46,1.54-3,2-4.72,1.32a4.13,4.13,0,0,1-1.24-.74c-.35-.31-.75-.69-1.21-1.15a36.71,36.71,0,0,1-4.63-5.55,8.45,8.45,0,0,1-1.66-3.56,5,5,0,0,1,.47-2.73,11,11,0,0,1,2.15-3,21.53,21.53,0,0,1,1.89-1.75l.58-.43a.25.25,0,0,1,.34.08c.41.61.83,1.22,1.25,1.82A.33.33,0,0,1,871.62,782.83Z" transform="translate(-864.94 -743.67)"/><path d="M883.64,789.73a5.54,5.54,0,0,1-1.26-.73,11.93,11.93,0,0,1-1.35-1.31,16.94,16.94,0,0,1-1.73-2.41c-2.09-3.37-1.64-6.43,1.38-8.89a4.49,4.49,0,0,1,3.42-1.18,4.12,4.12,0,0,1,2.78,1.75,22.86,22.86,0,0,1,2,3.11c.1.18,0,.36-.16.52-1.82,1.48-3.62,3-5.37,4.6l.29.37a3.54,3.54,0,0,0,1.79,1.23,2,2,0,0,0,1.78-.48,7.78,7.78,0,0,0,1.43-1.51,5.81,5.81,0,0,1,.71-.91.46.46,0,0,1,.29-.11.29.29,0,0,1,.25.13l1,1.8a.35.35,0,0,1,.08.22.66.66,0,0,1-.12.24,15.26,15.26,0,0,1-2.21,2.31,7.66,7.66,0,0,1-2,1.29,3.77,3.77,0,0,1-3,0Zm-2-7c.13.22.26.44.38.66.94-.87,1.88-1.71,2.84-2.55a.68.68,0,0,0,.21-.25c0-.18-.1-.48-.43-.89a6,6,0,0,0-.75-.84,2.59,2.59,0,0,0-.59-.37,1.18,1.18,0,0,0-1.38.15,3.07,3.07,0,0,0-.87,1C880.76,780.35,881,781.39,881.68,782.72Z" transform="translate(-864.94 -743.67)"/><path d="M889.24,763.75q4,8.84,8.28,17.48a.43.43,0,0,1,.05.25.39.39,0,0,1-.16.21c-.73.53-1.45,1.07-2.17,1.62-.17.1-.29.1-.37,0q-4.57-8.56-8.82-17.34a.48.48,0,0,1,0-.25.57.57,0,0,1,.2-.24q1.26-.9,2.52-1.77C889,763.58,889.14,763.59,889.24,763.75Z" transform="translate(-864.94 -743.67)"/><path d="M905.22,761.21q2.12,6.49,4.42,12.91a.33.33,0,0,1-.16.44c-.78.43-1.56.87-2.33,1.32-.17.07-.29,0-.35-.07l-.54-1.52a5.34,5.34,0,0,1-.5,1.88,2.88,2.88,0,0,1-1.18,1.24,4,4,0,0,1-1.47.54,3.13,3.13,0,0,1-1.27-.08,3.84,3.84,0,0,1-1.14-.58,8.18,8.18,0,0,1-2-2.37,14,14,0,0,1-1.47-3q-.44-1.34-.6-2.07a8.58,8.58,0,0,1-.18-1.59,4.86,4.86,0,0,1,.17-1.56,4.17,4.17,0,0,1,2.09-2.54,3.57,3.57,0,0,1,2.1-.56,3.86,3.86,0,0,1,1.79.79c-.2-.49-.39-1-.59-1.49-.06-.16,0-.3.2-.42.85-.47,1.7-.94,2.55-1.39C905,761,905.14,761,905.22,761.21Zm-3.7,11.62c.94,1.61,1.9,2.13,2.91,1.56a1.54,1.54,0,0,0,.79-1.13,6.31,6.31,0,0,0-.42-2.52,16.63,16.63,0,0,0-.94-2.51c-.26-.49-.43-.79-.51-.92l-.33-.5a2.22,2.22,0,0,0-.43-.47,3.11,3.11,0,0,0-.51-.3,1.42,1.42,0,0,0-1.32.14,1.63,1.63,0,0,0-.87,1.18,4.31,4.31,0,0,0,.13,1.78A15.76,15.76,0,0,0,901.52,772.83Z" transform="translate(-864.94 -743.67)"/><path d="M909.46,759a15.77,15.77,0,0,1-.67-2.62.5.5,0,0,1,.25-.22q1.29-.61,2.61-1.2c.25-.09.42,0,.48.12.16.87.33,1.7.52,2.49,1-.47,2.09-.92,3.15-1.36.22-.07.36,0,.43.16.1.63.19,1.26.29,1.89a.34.34,0,0,1-.23.4c-1,.43-2,.87-3,1.33,1.24,4.67,2,7.21,2.2,7.66a1.21,1.21,0,0,0,1.77.75,5,5,0,0,0,1.16-.68,4.4,4.4,0,0,1,.68-.47.27.27,0,0,1,.37.19c.16.67.32,1.34.49,2a.49.49,0,0,1,0,.27c0,.07-.2.21-.52.42a11.22,11.22,0,0,1-1.76.85,4.65,4.65,0,0,1-3.09.42,3.18,3.18,0,0,1-1.94-1.86,66.16,66.16,0,0,1-2.49-8.17l-1.28.63c-.22.1-.37.06-.45-.11-.14-.62-.29-1.25-.43-1.88-.05-.17,0-.31.23-.41Z" transform="translate(-864.94 -743.67)"/><path d="M922.79,754.15q1.15,6.72,2.51,13.4a.41.41,0,0,1,0,.25.41.41,0,0,1-.21.15l-2.45.95c-.19.05-.3,0-.35-.11q-1.54-6.69-2.9-13.44a.36.36,0,0,1,.26-.39c.89-.34,1.78-.66,2.68-1C922.57,753.91,922.73,754,922.79,754.15Zm-2-1a2.25,2.25,0,0,1-1.53,0,1.48,1.48,0,0,1-.91-.93,1.59,1.59,0,0,1,.28-1.46,2.57,2.57,0,0,1,1.41-1.08,2.36,2.36,0,0,1,1.59,0,1.42,1.42,0,0,1,.91,1,1.62,1.62,0,0,1-.33,1.46A2.81,2.81,0,0,1,920.74,753.15Z" transform="translate(-864.94 -743.67)"/><path d="M930.45,752c0,.36.07.72.11,1.08a6.68,6.68,0,0,1,3.55-2.38,2.82,2.82,0,0,1,3.44,1.49,4,4,0,0,1,.39,1.05c.06.34.1.62.12.83.19,3.3.41,6.59.68,9.88a.35.35,0,0,1-.26.38c-.85.21-1.69.42-2.54.65q-.29,0-.33-.15c-.33-3.11-.63-6.21-.9-9.32,0-.21-.05-.39-.08-.55a1.42,1.42,0,0,0-.83-1.15,2.55,2.55,0,0,0-1.43,0,5.55,5.55,0,0,0-1.64.71q.64,5.52,1.4,11a.33.33,0,0,1-.23.39l-2.51.8c-.19,0-.3,0-.34-.13-.75-4.52-1.45-9-2.07-13.59a.35.35,0,0,1,.27-.37c.91-.29,1.83-.56,2.74-.82C930.25,751.7,930.4,751.77,930.45,752Z" transform="translate(-864.94 -743.67)"/><path d="M953,748.31q-.44,6.81-.68,13.61a.33.33,0,0,1-.31.35c-.87.1-1.73.22-2.59.34-.19,0-.28-.05-.3-.19l.06-1.61a5.14,5.14,0,0,1-1.13,1.55,2.75,2.75,0,0,1-1.51.7A3.83,3.83,0,0,1,945,763a2.88,2.88,0,0,1-1.12-.56,3.71,3.71,0,0,1-.82-1,8.6,8.6,0,0,1-1-3,14.51,14.51,0,0,1-.25-3.31,21,21,0,0,1,.2-2.13,9.92,9.92,0,0,1,.41-1.55,5.29,5.29,0,0,1,.72-1.38A4.07,4.07,0,0,1,946,748.6a3.35,3.35,0,0,1,2.11.28,3.76,3.76,0,0,1,1.33,1.4c0-.53,0-1.06,0-1.6,0-.17.12-.28.34-.31l2.82-.33C952.81,748,953,748.13,953,748.31Zm-7.58,9.36c.26,1.85,1,2.69,2.07,2.54a1.48,1.48,0,0,0,1.13-.74,6.54,6.54,0,0,0,.53-2.5,17,17,0,0,0,.06-2.67c-.06-.55-.1-.9-.13-1s-.07-.35-.12-.59a2.09,2.09,0,0,0-.22-.6,2.49,2.49,0,0,0-.35-.47,1.38,1.38,0,0,0-1.25-.37,1.6,1.6,0,0,0-1.22.77,4.26,4.26,0,0,0-.52,1.69A15.94,15.94,0,0,0,945.38,757.67Z" transform="translate(-864.94 -743.67)"/><path d="M963.27,750.39l-1.6-.06a1.92,1.92,0,0,0-1.07.27.85.85,0,0,0-.38.75,3.22,3.22,0,0,0,.23,1.07,9.66,9.66,0,0,0,1,1.82c.46.69.77,1.18.94,1.47a5,5,0,0,1,.78,2.57A3.37,3.37,0,0,1,962,761a5.56,5.56,0,0,1-3.46,1,13.12,13.12,0,0,1-1.84,0,2.63,2.63,0,0,1-.76-.14.23.23,0,0,1-.08-.2l.21-2.18c0-.2.08-.3.22-.31a6.35,6.35,0,0,1,.79.09,5,5,0,0,0,1,.09c1.07,0,1.6-.43,1.58-1.18a3.1,3.1,0,0,0-.43-1.51c-.28-.46-.59-.93-.92-1.42l-.78-1.17a8.88,8.88,0,0,1-.6-1.23,4.53,4.53,0,0,1-.35-1.48,3.23,3.23,0,0,1,1.07-2.7,5.21,5.21,0,0,1,3.5-1.09,16.17,16.17,0,0,1,2.33.11c.24,0,.36.14.36.31l-.33,2.08C963.53,750.28,963.44,750.39,963.27,750.39Z" transform="translate(-864.94 -743.67)"/><path d="M978.08,761.25a3.51,3.51,0,0,1-3.05,1.37,3.13,3.13,0,0,1-2.88-2.36,8.35,8.35,0,0,1-.22-3.11,14.82,14.82,0,0,1,.56-3.27c.28-.89.53-1.56.72-2a9.82,9.82,0,0,1,.77-1.4,5.14,5.14,0,0,1,1-1.16,4,4,0,0,1,3.1-.82,3.26,3.26,0,0,1,2,.77,3.72,3.72,0,0,1,1,1.68q.93-3.51,1.89-7c.06-.2.22-.28.46-.26,1,.13,2,.26,2.94.41.25.06.35.19.32.38q-3.07,9.18-5.78,18.45a.31.31,0,0,1-.38.26l-2.59-.29c-.17,0-.25-.12-.24-.25C977.81,762.17,977.94,761.71,978.08,761.25Zm-2.73-4.12c-.19,1.86.27,2.84,1.39,3a1.46,1.46,0,0,0,1.27-.45,6.48,6.48,0,0,0,1.13-2.29,17.43,17.43,0,0,0,.71-2.57c.07-.55.12-.9.13-1s0-.35,0-.59a2.41,2.41,0,0,0-.07-.64,2.81,2.81,0,0,0-.23-.55,1.36,1.36,0,0,0-1.11-.65,1.56,1.56,0,0,0-1.37.44,4.27,4.27,0,0,0-.92,1.52A15.64,15.64,0,0,0,975.35,757.13Z" transform="translate(-864.94 -743.67)"/><path d="M985.89,761.93a6,6,0,0,1-.15-1.44,13.39,13.39,0,0,1,.25-1.86,17.75,17.75,0,0,1,.87-2.84c1.41-3.7,4-5.2,7.6-4.3a4.13,4.13,0,0,1,2.86,2,4.2,4.2,0,0,1,.24,3.25,24.78,24.78,0,0,1-1.28,3.45.38.38,0,0,1-.5.2c-2.19-.54-4.39-1-6.6-1.45,0,.11-.07.26-.11.46a3.78,3.78,0,0,0,0,2.16,1.81,1.81,0,0,0,1.38,1.11,6.82,6.82,0,0,0,2,.21,6.6,6.6,0,0,1,1.11,0,.45.45,0,0,1,.24.16.32.32,0,0,1,0,.28c-.27.64-.53,1.29-.8,1.93a.36.36,0,0,1-.12.2.89.89,0,0,1-.25,0,13.27,13.27,0,0,1-3-.35,6.65,6.65,0,0,1-2.14-.81,3.76,3.76,0,0,1-1.1-1.07A4,4,0,0,1,985.89,761.93Zm4.26-5.81c-.09.24-.19.47-.29.71q1.78.31,3.57.69a.54.54,0,0,0,.31,0c.17-.08.32-.37.45-.88a7.89,7.89,0,0,0,.22-1.1,2.77,2.77,0,0,0,0-.69,1.13,1.13,0,0,0-.9-1,2.73,2.73,0,0,0-1.27-.08Q991.08,754.05,990.15,756.12Z" transform="translate(-864.94 -743.67)"/><path d="M1015.23,752.9q-5,8.28-9.68,16.74a.43.43,0,0,1-.17.18.39.39,0,0,1-.26,0c-.83-.3-1.66-.58-2.5-.85-.17-.08-.23-.18-.19-.31q4.44-8.62,9.24-17.1a.46.46,0,0,1,.19-.18.57.57,0,0,1,.3,0l2.82,1.05C1015.22,752.57,1015.3,752.72,1015.23,752.9Z" transform="translate(-864.94 -743.67)"/><path d="M1010.69,769.8a5.58,5.58,0,0,1,.16-1.44,12.78,12.78,0,0,1,.65-1.77A16.79,16.79,0,0,1,1013,764c2.19-3.29,5.06-4.19,8.44-2.49a4.32,4.32,0,0,1,2.4,2.59,4.15,4.15,0,0,1-.47,3.24,23.78,23.78,0,0,1-2,3.09c-.13.17-.3.2-.54.08q-3.07-1.56-6.21-2.92c-.05.1-.13.24-.21.42a3.62,3.62,0,0,0-.41,2.12,1.86,1.86,0,0,0,1.12,1.41,7.71,7.71,0,0,0,1.91.65,6.63,6.63,0,0,1,1.1.26.5.5,0,0,1,.21.22.31.31,0,0,1,0,.28l-1.2,1.7c-.06.1-.12.16-.17.17a.8.8,0,0,1-.26,0,14.42,14.42,0,0,1-2.93-1,7,7,0,0,1-1.94-1.27,3.89,3.89,0,0,1-.85-1.29A4,4,0,0,1,1010.69,769.8Zm5.47-4.72-.44.63c1.13.47,2.25,1,3.37,1.48a.51.51,0,0,0,.31.08c.18,0,.39-.29.63-.76a6,6,0,0,0,.46-1,2.94,2.94,0,0,0,.1-.69,1.13,1.13,0,0,0-.68-1.18,2.76,2.76,0,0,0-1.23-.37C1017.91,763.26,1017.06,763.87,1016.16,765.08Z" transform="translate(-864.94 -743.67)"/><path d="M1036.77,771.11a.42.42,0,0,1,0,.55l-1.5,1.55c-.1.11-.26.1-.46,0a2.3,2.3,0,0,1-.53-.5,6.69,6.69,0,0,0-1.69-1.74,1.85,1.85,0,0,0-1.59-.29,4.28,4.28,0,0,0-1.71,1,14.13,14.13,0,0,0-2.61,3c-1,1.64-1,2.76-.06,3.38a7,7,0,0,0,1.86.89,3.65,3.65,0,0,1,1,.34c.26.18.33.37.2.56l-1.4,1.54c-.1.11-.17.16-.23.15l-.21,0a14.57,14.57,0,0,1-2.77-1.34,6.53,6.53,0,0,1-1.73-1.46,3.72,3.72,0,0,1-.7-1.37,3.83,3.83,0,0,1-.06-1.44,7.4,7.4,0,0,1,1-2.83,14.67,14.67,0,0,1,1.78-2.52A13.5,13.5,0,0,1,1027,769a7,7,0,0,1,1.53-.93,4.77,4.77,0,0,1,1.71-.42,6.84,6.84,0,0,1,4.08,1.32A12.17,12.17,0,0,1,1036.77,771.11Z" transform="translate(-864.94 -743.67)"/><path d="M1047.57,772.21q-2.44,2.25-4.86,4.53a7.21,7.21,0,0,1,4.08,1.62,3,3,0,0,1,1,3.76,3.79,3.79,0,0,1-.6.94,6.8,6.8,0,0,1-.59.6c-2.54,2.13-5,4.28-7.53,6.46a.35.35,0,0,1-.46,0c-.72-.58-1.44-1.16-2.16-1.72-.15-.14-.17-.26-.09-.37q3.42-3.19,6.92-6.31a4.8,4.8,0,0,0,.39-.4,1.39,1.39,0,0,0,.4-1.37,2.85,2.85,0,0,0-.92-1.2,5.82,5.82,0,0,0-1.62-.93q-4,3.84-8,7.77a.35.35,0,0,1-.46,0c-.74-.53-1.49-1.06-2.24-1.57-.15-.13-.19-.25-.11-.36q6.66-7.07,13.65-13.85a.4.4,0,0,1,.22-.12.44.44,0,0,1,.29.11c.84.6,1.67,1.22,2.5,1.85Q1047.75,772,1047.57,772.21Z" transform="translate(-864.94 -743.67)"/><path d="M1044.07,792.15a5.3,5.3,0,0,1,.63-1.31,10.54,10.54,0,0,1,1.2-1.46,15.55,15.55,0,0,1,2.26-1.92c3.19-2.35,6.27-2.15,9,.75a4.76,4.76,0,0,1,1.53,3.4,4,4,0,0,1-1.49,2.95,22.59,22.59,0,0,1-3,2.2c-.18.12-.36.07-.55-.13q-2.52-2.67-5.14-5.14l-.34.32a3.56,3.56,0,0,0-1.08,1.89,2,2,0,0,0,.64,1.76,8,8,0,0,0,1.67,1.35,6.3,6.3,0,0,1,1,.67.47.47,0,0,1,.14.28.3.3,0,0,1-.1.27l-1.72,1.18a.34.34,0,0,1-.22.1.7.7,0,0,1-.25-.11,15.73,15.73,0,0,1-2.54-2.09,7.85,7.85,0,0,1-1.48-2,4.05,4.05,0,0,1-.42-1.55A4.12,4.12,0,0,1,1044.07,792.15Zm6.85-2.49-.63.43q1.43,1.32,2.82,2.7a.83.83,0,0,0,.28.19c.19,0,.48-.14.86-.5a6.2,6.2,0,0,0,.77-.81,2.58,2.58,0,0,0,.32-.62,1.21,1.21,0,0,0-.28-1.39,3.18,3.18,0,0,0-1.1-.82C1053.21,788.56,1052.19,788.83,1050.92,789.66Z" transform="translate(-864.94 -743.67)"/></svg>