<svg id="Capa_1" data-name="Capa 1" xmlns="http://www.w3.org/2000/svg" viewBox="0 0 266.42 73.05"><path d="M842.88,667.25c-.64.55-1.29,1.11-1.92,1.68a3.64,3.64,0,0,0-1.1,1.9,3.71,3.71,0,0,0,.84,2.4q1,1.41,2.76,3.54a36.57,36.57,0,0,0,2.7,2.94,2.51,2.51,0,0,0,1.59.83,1.49,1.49,0,0,0,1.13-.46l.7-.76c-1.42-1.78-2.84-3.57-4.24-5.36a.36.36,0,0,1,.06-.47c.61-.68,1.23-1.36,1.86-2,.19-.19.35-.21.48-.08q2.73,3.6,5.51,7.16a.38.38,0,0,1,0,.47c-.75,1-1.72,2.11-2.92,3.41-1.44,1.55-3,2-4.72,1.28a4.41,4.41,0,0,1-1.26-.76q-.54-.48-1.23-1.17a39.58,39.58,0,0,1-4.76-5.6,9.08,9.08,0,0,1-1.76-3.55,4.76,4.76,0,0,1,.35-2.68,10.08,10.08,0,0,1,2-2.9,18.59,18.59,0,0,1,1.77-1.7l.55-.43a.27.27,0,0,1,.34.08l1.33,1.81A.31.31,0,0,1,842.88,667.25Z" transform="translate(-836.49 -610.98)"/><path d="M855.21,674a5.55,5.55,0,0,1-1.3-.7,12.1,12.1,0,0,1-1.42-1.3,18.38,18.38,0,0,1-1.86-2.38c-2.26-3.34-2-6.38.81-8.89a4.21,4.21,0,0,1,3.28-1.28,4.3,4.3,0,0,1,2.89,1.64,24.11,24.11,0,0,1,2.2,3,.38.38,0,0,1-.11.53c-1.72,1.56-3.4,3.16-5.06,4.79.08.1.18.22.31.36a3.69,3.69,0,0,0,1.86,1.19,1.89,1.89,0,0,0,1.75-.53,7.57,7.57,0,0,0,1.35-1.58,6,6,0,0,1,.65-.95.41.41,0,0,1,.28-.11.3.3,0,0,1,.26.11l1.17,1.77c.07.1.11.17.1.22a.7.7,0,0,1-.11.25,14.19,14.19,0,0,1-2.08,2.42,7.28,7.28,0,0,1-2,1.37,3.84,3.84,0,0,1-1.56.33A3.91,3.91,0,0,1,855.21,674Zm-2.35-7,.42.65c.88-.89,1.76-1.76,2.66-2.63.11-.11.18-.2.18-.26s-.13-.47-.49-.88a7.77,7.77,0,0,0-.79-.81,3,3,0,0,0-.62-.35,1.15,1.15,0,0,0-1.36.19,2.93,2.93,0,0,0-.79,1C851.79,664.71,852.05,665.73,852.86,667.05Z" transform="translate(-836.49 -610.98)"/><path d="M858.71,647.82q4.8,8.59,9.86,17a.48.48,0,0,1,.08.25.39.39,0,0,1-.15.22l-2,1.78c-.16.11-.28.11-.37,0q-5.25-8.39-10.26-16.92a.41.41,0,0,1-.07-.26.46.46,0,0,1,.17-.24c.76-.64,1.52-1.26,2.28-1.89C858.42,647.66,858.59,647.67,858.71,647.82Z" transform="translate(-836.49 -610.98)"/><path d="M874,644.1q2.93,6.3,6,12.53a.32.32,0,0,1-.11.46l-2.17,1.57q-.26.14-.36,0l-.71-1.49a5.49,5.49,0,0,1-.29,2,2.9,2.9,0,0,1-1.05,1.35,3.88,3.88,0,0,1-1.42.67,3.09,3.09,0,0,1-1.28,0,3.74,3.74,0,0,1-1.2-.5,8.49,8.49,0,0,1-2.25-2.23,15.44,15.44,0,0,1-1.76-2.89c-.38-.87-.64-1.55-.8-2a9.92,9.92,0,0,1-.36-1.58,5.22,5.22,0,0,1,0-1.58,4,4,0,0,1,1.77-2.69,3.25,3.25,0,0,1,2-.73,3.84,3.84,0,0,1,1.85.64c-.26-.48-.51-1-.76-1.45-.08-.15,0-.3.14-.44l2.31-1.62C873.75,643.92,873.91,643.94,874,644.1Zm-2.26,12c1.1,1.55,2.13,2,3.07,1.32a1.51,1.51,0,0,0,.66-1.21,6.47,6.47,0,0,0-.71-2.5,16.5,16.5,0,0,0-1.22-2.43l-.61-.88c-.1-.12-.22-.28-.39-.47a2.13,2.13,0,0,0-.48-.44,3.39,3.39,0,0,0-.54-.26,1.37,1.37,0,0,0-1.27.25,1.58,1.58,0,0,0-.73,1.26,4.55,4.55,0,0,0,.34,1.77A16.28,16.28,0,0,0,871.76,656.09Z" transform="translate(-836.49 -610.98)"/><path d="M877.84,641.41a15.78,15.78,0,0,1-1-2.55.46.46,0,0,1,.21-.24c.78-.5,1.56-1,2.35-1.49.24-.11.4-.09.49.07q.42,1.29.87,2.43c.95-.58,1.9-1.16,2.85-1.72.21-.11.36-.07.45.1l.57,1.86a.34.34,0,0,1-.16.43c-.92.55-1.84,1.12-2.75,1.69,1.89,4.53,3,7,3.25,7.43a1.22,1.22,0,0,0,1.87.53,5,5,0,0,0,1.05-.82,4.29,4.29,0,0,1,.6-.56c.16-.1.3-.05.4.13.26.65.51,1.31.77,2a.52.52,0,0,1,0,.28,2,2,0,0,1-.46.49,12.39,12.39,0,0,1-1.64,1.08,4.56,4.56,0,0,1-3,.8,3.19,3.19,0,0,1-2.17-1.65,74,74,0,0,1-3.56-7.93l-1.16.77c-.21.11-.36.09-.46-.07-.23-.61-.46-1.22-.68-1.84a.33.33,0,0,1,.16-.44Z" transform="translate(-836.49 -610.98)"/><path d="M890,635q2.26,6.56,4.67,13.07a.62.62,0,0,1,0,.25.35.35,0,0,1-.19.19c-.76.43-1.52.86-2.28,1.31-.18.07-.3.05-.36-.07q-2.55-6.51-5-13.09a.35.35,0,0,1,.18-.42c.81-.46,1.62-.9,2.43-1.35C889.78,634.77,889.94,634.81,890,635Zm-2.14-.72a2.12,2.12,0,0,1-1.48.24,1.55,1.55,0,0,1-1-.81,1.65,1.65,0,0,1,0-1.5,2.46,2.46,0,0,1,1.18-1.26,2.17,2.17,0,0,1,1.52-.25,1.48,1.48,0,0,1,1,.82,1.66,1.66,0,0,1-.07,1.51A2.56,2.56,0,0,1,887.88,634.26Z" transform="translate(-836.49 -610.98)"/><path d="M897,631.65c.1.36.2.71.31,1.07a6.35,6.35,0,0,1,2.95-3,2.78,2.78,0,0,1,3.6.9,4,4,0,0,1,.57,1,5.26,5.26,0,0,1,.28.81c.84,3.26,1.71,6.5,2.59,9.75a.33.33,0,0,1-.18.42c-.79.36-1.59.72-2.38,1.1-.18.06-.3,0-.35-.1-.9-3-1.77-6.1-2.63-9.16a3,3,0,0,0-.18-.53c-.26-.6-.59-.94-1-1a2.44,2.44,0,0,0-1.39.22,5.19,5.19,0,0,0-1.45,1q1.63,5.42,3.35,10.81a.34.34,0,0,1-.16.43l-2.34,1.2c-.18.07-.3,0-.36-.08-1.5-4.41-3-8.84-4.38-13.29a.35.35,0,0,1,.2-.42c.82-.41,1.65-.83,2.48-1.23Q896.9,631.38,897,631.65Z" transform="translate(-836.49 -610.98)"/><path d="M917.73,623.89q1.14,6.84,2.43,13.65a.32.32,0,0,1-.22.41l-2.46.89c-.17,0-.28,0-.32-.12-.1-.54-.2-1.08-.29-1.62a5.31,5.31,0,0,1-.77,1.78,2.68,2.68,0,0,1-1.33,1,3.73,3.73,0,0,1-1.51.25,2.94,2.94,0,0,1-1.21-.34,3.57,3.57,0,0,1-1-.81,8.86,8.86,0,0,1-1.55-2.76,16.13,16.13,0,0,1-.92-3.26q-.2-1.4-.24-2.16a9.92,9.92,0,0,1,.07-1.61,5.14,5.14,0,0,1,.4-1.51,3.85,3.85,0,0,1,2.34-2.08,3.21,3.21,0,0,1,2.06-.14,3.86,3.86,0,0,1,1.58,1.13c-.11-.53-.23-1.06-.34-1.59,0-.18,0-.3.24-.38.86-.31,1.73-.62,2.6-.91C917.52,623.64,917.67,623.7,917.73,623.89Zm-5.19,10.83q1,2.68,2.55,2.13a1.4,1.4,0,0,0,.93-1,6.64,6.64,0,0,0,0-2.59,17.5,17.5,0,0,0-.53-2.67c-.18-.54-.3-.87-.36-1s-.13-.32-.24-.55a2.17,2.17,0,0,0-.34-.55,3.44,3.44,0,0,0-.44-.4,1.32,1.32,0,0,0-1.27-.12,1.54,1.54,0,0,0-1,1,4.77,4.77,0,0,0-.14,1.79A16.87,16.87,0,0,0,912.54,634.72Z" transform="translate(-836.49 -610.98)"/><path d="M927.94,623.64l-1.52.32a1.74,1.74,0,0,0-.94.52.86.86,0,0,0-.18.82,3.68,3.68,0,0,0,.48,1,9.47,9.47,0,0,0,1.38,1.57q.92.86,1.26,1.23a5.35,5.35,0,0,1,1.38,2.35,3.45,3.45,0,0,1-.45,3,5.37,5.37,0,0,1-3.09,1.82,13,13,0,0,1-1.79.39,3.51,3.51,0,0,1-.78,0,.28.28,0,0,1-.13-.18c-.1-.74-.19-1.48-.29-2.22,0-.19,0-.31.14-.35a3.79,3.79,0,0,1,.78-.09,4.64,4.64,0,0,0,1-.14c1-.29,1.44-.79,1.23-1.54a3,3,0,0,0-.77-1.38c-.38-.4-.78-.8-1.22-1.21l-1-1a7.58,7.58,0,0,1-.86-1.07,4.66,4.66,0,0,1-.69-1.4,3.4,3.4,0,0,1,.38-2.9,4.83,4.83,0,0,1,3-1.87,14.66,14.66,0,0,1,2.22-.43c.23,0,.37.05.41.22.07.71.13,1.42.2,2.13C928.16,623.48,928.1,623.6,927.94,623.64Z" transform="translate(-836.49 -610.98)"/><path d="M940.83,612.67c0,2.57,0,5.15.06,7.72a5.74,5.74,0,0,1,1.2-1.92,2.86,2.86,0,0,1,1.69-.85,4.21,4.21,0,0,1,1.68,0,3,3,0,0,1,1.18.59,3.83,3.83,0,0,1,.84,1,8.47,8.47,0,0,1,.85,3,16.74,16.74,0,0,1,.12,3.38c-.08.94-.16,1.66-.25,2.16a9.66,9.66,0,0,1-.39,1.54,5.9,5.9,0,0,1-.65,1.38,3.3,3.3,0,0,1-2.28,1.51,3.13,3.13,0,0,1-2.11-.22,4.54,4.54,0,0,1-1.35-1.47c.05.58.1,1.16.16,1.74a.31.31,0,0,1-.26.37l-2.53.55c-.19,0-.3,0-.32-.17q-.71-9.86-1.13-19.74a.55.55,0,0,1,0-.25.44.44,0,0,1,.25-.13l2.77-.55C940.66,612.4,940.8,612.48,940.83,612.67ZM945,623.1c-.27-1.88-1-2.75-2.15-2.57a1.48,1.48,0,0,0-1.13.8,6,6,0,0,0-.41,2.57,15.13,15.13,0,0,0,.11,2.72c.09.55.16.9.19,1s.08.35.15.59a2.41,2.41,0,0,0,.25.6,3,3,0,0,0,.35.45,1.22,1.22,0,0,0,1.17.35,1.42,1.42,0,0,0,1.09-.8,4.42,4.42,0,0,0,.43-1.72A17.34,17.34,0,0,0,945,623.1Z" transform="translate(-836.49 -610.98)"/><path d="M962.67,616.29q-.63,6.9-1.12,13.82a.32.32,0,0,1-.31.34c-.86.07-1.72.15-2.57.24-.18,0-.28-.08-.29-.21,0-.55.09-1.09.13-1.64a5.11,5.11,0,0,1-1.18,1.52,2.68,2.68,0,0,1-1.53.63,3.59,3.59,0,0,1-1.5-.15,2.94,2.94,0,0,1-1.07-.64,3.65,3.65,0,0,1-.75-1,8.77,8.77,0,0,1-.79-3.07,16.27,16.27,0,0,1-.06-3.38c.1-.94.21-1.66.31-2.15a11.18,11.18,0,0,1,.47-1.54,5,5,0,0,1,.77-1.36,3.74,3.74,0,0,1,2.76-1.41,3.12,3.12,0,0,1,2,.39,3.89,3.89,0,0,1,1.23,1.49c0-.54,0-1.08.07-1.63q0-.25.33-.3l2.72-.22C962.54,616,962.66,616.1,962.67,616.29Zm-7.7,9.15c.17,1.9.8,2.79,1.91,2.71a1.41,1.41,0,0,0,1.13-.7,6.46,6.46,0,0,0,.63-2.52,17,17,0,0,0,.16-2.71c0-.56-.06-.92-.08-1.07s-.05-.35-.09-.6a2.27,2.27,0,0,0-.19-.62,2.79,2.79,0,0,0-.32-.5,1.27,1.27,0,0,0-1.18-.43,1.47,1.47,0,0,0-1.21.71,4.36,4.36,0,0,0-.58,1.69A17.21,17.21,0,0,0,955,625.44Z" transform="translate(-836.49 -610.98)"/><path d="M965.28,631.41q.68-7.59,1.52-15.18a.35.35,0,0,1,.34-.29c.9,0,1.81-.08,2.71-.1.25,0,.38.12.38.31q-1,7.29-1.8,14.59a6.82,6.82,0,0,1-1.69,4.18,5.77,5.77,0,0,1-4,1.45.26.26,0,0,1-.31-.27l.18-2.34c0-.19.09-.29.24-.29a2.88,2.88,0,0,0,1.74-.55A2.2,2.2,0,0,0,965.28,631.41Zm3.4-16.87a2.08,2.08,0,0,1-1.4-.45,1.55,1.55,0,0,1-.54-1.19,1.68,1.68,0,0,1,.69-1.33A2.38,2.38,0,0,1,969,611a2.17,2.17,0,0,1,1.44.47,1.51,1.51,0,0,1,.54,1.2,1.71,1.71,0,0,1-.73,1.31A2.51,2.51,0,0,1,968.68,614.54Z" transform="translate(-836.49 -610.98)"/><path d="M984.85,616.79q-1.49,6.78-2.83,13.58a.32.32,0,0,1-.36.29l-2.58-.08c-.18,0-.27-.11-.26-.24.11-.54.22-1.07.34-1.61a5.18,5.18,0,0,1-1.37,1.36,2.62,2.62,0,0,1-1.59.43,3.54,3.54,0,0,1-1.47-.33,3,3,0,0,1-1-.76,4.14,4.14,0,0,1-.61-1.12,8.8,8.8,0,0,1-.4-3.14,15.66,15.66,0,0,1,.37-3.37c.21-.92.41-1.62.57-2.09a10.43,10.43,0,0,1,.66-1.47,5.22,5.22,0,0,1,.93-1.26,3.76,3.76,0,0,1,2.91-1.05,3.1,3.1,0,0,1,2,.63,4,4,0,0,1,1,1.64l.27-1.61c0-.17.16-.26.37-.26q1.37,0,2.73.12C984.76,616.48,984.87,616.6,984.85,616.79Zm-8.78,8.13c-.07,1.9.45,2.87,1.55,2.92a1.43,1.43,0,0,0,1.22-.56,6.72,6.72,0,0,0,.93-2.41,16.49,16.49,0,0,0,.5-2.67c0-.57.05-.92.05-1.08s0-.35,0-.6a2.23,2.23,0,0,0-.11-.64,3.78,3.78,0,0,0-.26-.54,1.31,1.31,0,0,0-1.12-.57,1.5,1.5,0,0,0-1.29.55,4.74,4.74,0,0,0-.79,1.61A16.79,16.79,0,0,0,976.07,624.92Z" transform="translate(-836.49 -610.98)"/><path d="M994.37,620.35l-1.53-.27a1.69,1.69,0,0,0-1.06.13.85.85,0,0,0-.47.7,3.32,3.32,0,0,0,.07,1.11,9.18,9.18,0,0,0,.69,2c.34.75.58,1.29.7,1.61a5.18,5.18,0,0,1,.4,2.69,3.48,3.48,0,0,1-1.52,2.59,5.32,5.32,0,0,1-3.54.55,13.15,13.15,0,0,1-1.79-.31,2.84,2.84,0,0,1-.73-.25.29.29,0,0,1-.05-.22c.18-.72.37-1.44.55-2.16,0-.2.12-.29.26-.27a4.51,4.51,0,0,1,.76.2,4.33,4.33,0,0,0,1,.24c1,.12,1.62-.2,1.71-1a3.12,3.12,0,0,0-.2-1.57c-.2-.5-.43-1-.67-1.57s-.44-1-.58-1.29a8,8,0,0,1-.39-1.32,4.67,4.67,0,0,1-.12-1.55,3.43,3.43,0,0,1,1.43-2.56,4.83,4.83,0,0,1,3.49-.61,13.7,13.7,0,0,1,2.2.42c.23.06.33.18.3.35l-.6,2.06C994.63,620.27,994.53,620.37,994.37,620.35Z" transform="translate(-836.49 -610.98)"/><path d="M1001.82,631.15a6.3,6.3,0,0,1-.14-1.47,12.83,12.83,0,0,1,.26-1.9,18.26,18.26,0,0,1,.86-2.89c1.4-3.78,3.88-5.34,7.36-4.54a3.93,3.93,0,0,1,2.76,1.91,4.44,4.44,0,0,1,.27,3.3,26.4,26.4,0,0,1-1.19,3.55.38.38,0,0,1-.49.22c-2.14-.47-4.3-.91-6.45-1.29,0,.11-.07.27-.12.46a4,4,0,0,0,.06,2.2,1.77,1.77,0,0,0,1.36,1.1,6.61,6.61,0,0,0,1.95.17,6.21,6.21,0,0,1,1.09,0,.45.45,0,0,1,.25.16.34.34,0,0,1,.05.28c-.26.66-.51,1.32-.76,2a.48.48,0,0,1-.12.21.89.89,0,0,1-.25,0,12.09,12.09,0,0,1-3-.27,6.41,6.41,0,0,1-2.12-.79,3.67,3.67,0,0,1-1.08-1.07A4.1,4.1,0,0,1,1001.82,631.15Zm4.18-6c-.09.24-.18.48-.28.72,1.16.2,2.32.4,3.47.62a.52.52,0,0,0,.31,0c.15-.08.3-.39.42-.91a6.45,6.45,0,0,0,.21-1.12,3.44,3.44,0,0,0,0-.7,1.1,1.1,0,0,0-.88-1,2.61,2.61,0,0,0-1.23,0C1007.26,623,1006.6,623.76,1006,625.17Z" transform="translate(-836.49 -610.98)"/><path d="M1021.87,623.93c-.15.34-.31.67-.47,1a6.24,6.24,0,0,1,4.14-.28,2.74,2.74,0,0,1,2.1,3,4.74,4.74,0,0,1-.21,1.12,6.79,6.79,0,0,1-.33.79q-2.26,4.5-4.48,9a.34.34,0,0,1-.4.2l-2.51-.74c-.17-.07-.24-.17-.2-.3q2-4.32,4.06-8.62a4.22,4.22,0,0,0,.22-.52,1.5,1.5,0,0,0-.09-1.43,2.46,2.46,0,0,0-1.18-.75,5.21,5.21,0,0,0-1.71-.21q-2.35,5.15-4.6,10.33a.34.34,0,0,1-.4.22c-.84-.22-1.69-.43-2.53-.63-.18-.07-.25-.16-.21-.29q2.65-6.48,5.46-12.89a.34.34,0,0,1,.41-.18c.89.22,1.78.46,2.66.7C1021.84,623.61,1021.93,623.74,1021.87,623.93Z" transform="translate(-836.49 -610.98)"/><path d="M1048,634.25q-3.87,5.76-7.6,11.61a.33.33,0,0,1-.45.15c-.8-.36-1.61-.7-2.42-1-.16-.09-.21-.19-.15-.32l.9-1.37a5.2,5.2,0,0,1-1.79.76,2.79,2.79,0,0,1-1.66-.18,3.76,3.76,0,0,1-1.28-.85,2.77,2.77,0,0,1-.65-1.08,3.68,3.68,0,0,1-.18-1.27,8.78,8.78,0,0,1,.76-3.07,15.73,15.73,0,0,1,1.56-3c.54-.77,1-1.35,1.31-1.74a9.5,9.5,0,0,1,1.15-1.13,5.21,5.21,0,0,1,1.33-.83,3.87,3.87,0,0,1,3.14.09,3.31,3.31,0,0,1,1.62,1.31,4,4,0,0,1,.39,1.91c.27-.47.55-.93.84-1.4.09-.15.23-.19.44-.11.85.37,1.7.74,2.54,1.13C1048,633.93,1048,634.07,1048,634.25Zm-11.27,4.33c-.76,1.75-.62,2.84.41,3.3a1.47,1.47,0,0,0,1.35-.07,6.42,6.42,0,0,0,1.76-1.91,16.06,16.06,0,0,0,1.45-2.31c.23-.51.38-.84.43-1s.13-.33.21-.57a2,2,0,0,0,.12-.64,2.48,2.48,0,0,0-.05-.59,1.31,1.31,0,0,0-.85-.95,1.52,1.52,0,0,0-1.42,0,4.46,4.46,0,0,0-1.33,1.21A16.92,16.92,0,0,0,1036.69,638.58Z" transform="translate(-836.49 -610.98)"/><path d="M1043.11,647.66c-.16-.1-.21-.22-.14-.36l.07-.09q5.28-3.69,10.89-7.08c-1.31-.66-2.62-1.3-3.94-1.93q-.32-.18-.18-.42l1.3-1.88a.35.35,0,0,1,.47-.08q3.93,1.9,7.77,4c.22.14.28.3.17.47q-5.65,3.26-11,6.82c1.29.62,2.58,1.27,3.86,1.93.19.12.24.26.14.43l-1.39,1.82a.45.45,0,0,1-.2.16.39.39,0,0,1-.26-.05Q1046.93,649.43,1043.11,647.66Z" transform="translate(-836.49 -610.98)"/><path d="M1059.58,656.84c.19-.24.39-.47.59-.71a5.85,5.85,0,0,1-3.76-.87,2.6,2.6,0,0,1-1.38-2,4.28,4.28,0,0,1,.67-2.52,5.9,5.9,0,0,1,.4-.55c2.09-2.64,4.19-5.25,6.32-7.86a.33.33,0,0,1,.46-.06l2.51,1.46c.16.12.2.25.12.38q-3.09,3.61-6.12,7.27c-.13.16-.24.31-.34.46a1.64,1.64,0,0,0-.34,1.37,2.24,2.24,0,0,0,.93,1,5.34,5.34,0,0,0,1.62.7q3.69-4.27,7.45-8.51a.33.33,0,0,1,.47-.05c.82.52,1.64,1.05,2.45,1.59.16.13.19.26.11.38q-4.74,5.12-9.36,10.31a.34.34,0,0,1-.47.06c-.74-.46-1.47-.92-2.21-1.36C1059.51,657.15,1059.47,657,1059.58,656.84Zm15.2-15c-1.73.8-3.43,1.62-5.12,2.46a.6.6,0,0,1-.57-.06l-1.66-1c-.17-.12-.22-.25-.14-.37q2.16-1.53,4.36-3a.51.51,0,0,1,.59,0l2.4,1.52C1074.84,641.47,1074.89,641.64,1074.78,641.8Z" transform="translate(-836.49 -610.98)"/><path d="M1082,656.06a.43.43,0,0,1,0,.55l-1.63,1.46c-.11.12-.26.09-.45-.06a2.13,2.13,0,0,1-.47-.53,6.55,6.55,0,0,0-1.5-1.85,1.82,1.82,0,0,0-1.54-.41,4.59,4.59,0,0,0-1.79.91,15,15,0,0,0-2.92,2.85c-1.18,1.56-1.31,2.69-.41,3.39a6.19,6.19,0,0,0,1.78,1,4.49,4.49,0,0,1,1,.41c.25.21.3.4.15.59l-1.54,1.45c-.11.1-.18.15-.24.14l-.21-.06a13.22,13.22,0,0,1-2.66-1.56,6.62,6.62,0,0,1-1.59-1.63,3.49,3.49,0,0,1-.55-1.44,4,4,0,0,1,.09-1.45,7.84,7.84,0,0,1,1.35-2.77,15.36,15.36,0,0,1,2.06-2.37,14.75,14.75,0,0,1,1.75-1.4,7.36,7.36,0,0,1,1.61-.81,5,5,0,0,1,1.73-.29,6.58,6.58,0,0,1,3.87,1.6A11.52,11.52,0,0,1,1082,656.06Z" transform="translate(-836.49 -610.98)"/><path d="M1093.54,666.5q-5.49,4.25-10.89,8.61a.34.34,0,0,1-.48,0q-1-.93-2.07-1.83c-.13-.14-.14-.26,0-.36l1.28-1a5.26,5.26,0,0,1-2,.13,2.9,2.9,0,0,1-1.57-.74,4,4,0,0,1-1-1.25,3.09,3.09,0,0,1-.32-1.25,3.64,3.64,0,0,1,.2-1.28,8.39,8.39,0,0,1,1.65-2.71,15.59,15.59,0,0,1,2.42-2.37,21.12,21.12,0,0,1,1.8-1.24,9.44,9.44,0,0,1,1.46-.7,5.46,5.46,0,0,1,1.55-.35,4.11,4.11,0,0,1,3.06,1.15,3.44,3.44,0,0,1,1.19,1.81,3.86,3.86,0,0,1-.18,2c.41-.36.82-.72,1.24-1.07.13-.11.29-.1.47,0l2.16,2C1093.66,666.2,1093.68,666.36,1093.54,666.5Zm-12.34.34c-1.25,1.43-1.44,2.53-.56,3.32a1.56,1.56,0,0,0,1.34.39,6.28,6.28,0,0,0,2.29-1.24,16.93,16.93,0,0,0,2.1-1.74c.38-.41.62-.68.72-.8a5.89,5.89,0,0,0,.36-.48,2.08,2.08,0,0,0,.32-.57,2.68,2.68,0,0,0,.12-.59,1.43,1.43,0,0,0-.55-1.21,1.64,1.64,0,0,0-1.41-.44,4.43,4.43,0,0,0-1.66.72A16.14,16.14,0,0,0,1081.2,666.84Z" transform="translate(-836.49 -610.98)"/><path d="M1100.21,677.45l-1-1.28a7.1,7.1,0,0,0-2.65-2q-4.33,3.07-8.61,6.22a.35.35,0,0,1-.47,0l-2-1.93c-.13-.15-.15-.28-.06-.37q5.57-4.26,11.22-8.4a.36.36,0,0,1,.46.07c.7.68,1.4,1.37,2.09,2.07.18.2.2.37,0,.51l-1,.71a9,9,0,0,1,2.15.54,4,4,0,0,1,1.55,1.06,10,10,0,0,1,.89,1.09.31.31,0,0,1,0,.46,13.68,13.68,0,0,1-2.06,1.36A.39.39,0,0,1,1100.21,677.45Z" transform="translate(-836.49 -610.98)"/></svg>